<?xml version="1.0" encoding="utf-8"?>
<!-- Generator: Adobe Illustrator 16.0.0, SVG Export Plug-In . SVG Version: 6.00 Build 0)  -->
<!DOCTYPE svg PUBLIC "-//W3C//DTD SVG 1.1//EN" "http://www.w3.org/Graphics/SVG/1.1/DTD/svg11.dtd">
<svg version="1.1" id="Layer_1" xmlns="http://www.w3.org/2000/svg" xmlns:xlink="http://www.w3.org/1999/xlink" x="0px" y="0px"
	 width="2974.5px" height="2028px" viewBox="0 -727.5 2974.5 2028" enable-background="new 0 -727.5 2974.5 2028"
	 xml:space="preserve">
<g>
	<path d="M793.146-59.61c-137.961,0-254.363,116.403-254.363,254.361c0,142.271,116.402,254.363,254.363,254.363
		c142.27,0,254.361-116.406,254.361-254.363C1047.507,56.793,935.414-59.61,793.146-59.61z"/>
	<path d="M2181.357-59.61c-142.271,0-254.363,116.403-254.363,254.361c0,142.271,116.406,254.363,254.363,254.363
		c137.959,0,254.36-112.092,254.36-254.363C2435.718,56.793,2319.316-59.61,2181.357-59.61z"/>
	<path d="M1500.185-59.61c-142.269,0-254.362,116.403-254.362,254.361c0,142.271,116.403,254.363,254.362,254.363
		c142.27,0,254.36-116.406,254.36-254.363C1754.545,56.793,1642.454-59.61,1500.185-59.61z"/>
</g>
</svg>
