<?xml version="1.0" encoding="utf-8"?>
<!-- Generator: Adobe Illustrator 16.0.0, SVG Export Plug-In . SVG Version: 6.00 Build 0)  -->
<!DOCTYPE svg PUBLIC "-//W3C//DTD SVG 1.1//EN" "http://www.w3.org/Graphics/SVG/1.1/DTD/svg11.dtd">
<svg version="1.1" id="Layer_1" xmlns="http://www.w3.org/2000/svg" xmlns:xlink="http://www.w3.org/1999/xlink" x="0px" y="0px"
	 width="1280px" height="800px" viewBox="0 0 1280 800" enable-background="new 0 0 1280 800" xml:space="preserve">
<title>Twitter icon</title>
<path d="M1121.805,100.495c-35.67,15.679-73.758,26.36-113.862,31.237c40.869-24.627,72.308-63.441,87.181-109.751
	c-38.331,22.37-80.812,38.653-126.034,47.721C932.975,31.05,881.506,6.867,824.352,6.867c-109.508,0-198.3,88.792-198.3,198.181
	c0,15.719,1.814,30.833,5.119,45.303c-164.847-7.779-310.955-86.938-408.735-206.604c-17.21,29.101-26.844,62.916-26.844,99.755
	c0,68.921,35.066,129.501,88.188,165.09c-32.526-1.048-63.118-9.996-89.8-24.828v2.458c0,96.129,68.236,176.295,159.045,194.554
	c-16.647,4.474-34.22,6.893-52.236,6.893c-12.656,0-24.788-1.21-36.919-3.468c25.432,78.717,98.546,136.112,185.565,137.724
	c-67.713,53.162-153.522,84.843-245.943,84.843c-15.719,0-31.397-0.928-47.157-2.701C244.562,760.252,348.51,793.1,460.921,793.1
	c364.922,0,564.232-302.128,564.232-563.708c0-8.424,0-16.928-0.604-25.392c38.732-27.771,72.549-62.876,99.15-102.697
	L1121.805,100.495L1121.805,100.495z"/>
</svg>
