<?xml version="1.0" encoding="utf-8"?>
<!-- Generator: Adobe Illustrator 16.0.0, SVG Export Plug-In . SVG Version: 6.00 Build 0)  -->
<!DOCTYPE svg PUBLIC "-//W3C//DTD SVG 1.1//EN" "http://www.w3.org/Graphics/SVG/1.1/DTD/svg11.dtd">
<svg version="1.1"
	 id="Layer_1" xmlns:rdf="http://www.w3.org/1999/02/22-rdf-syntax-ns#" xmlns:sodipodi="http://sodipodi.sourceforge.net/DTD/sodipodi-0.dtd" xmlns:inkscape="http://www.inkscape.org/namespaces/inkscape" xmlns:svg="http://www.w3.org/2000/svg" xmlns:cc="http://creativecommons.org/ns#" xmlns:dc="http://purl.org/dc/elements/1.1/"
	 xmlns="http://www.w3.org/2000/svg" xmlns:xlink="http://www.w3.org/1999/xlink" x="0px" y="0px" width="1280px"
	 height="853.797px" viewBox="0 0 1280 853.797" enable-background="new 0 0 1280 853.797" xml:space="preserve">
<g transform="translate(0,-952.36218)">
	<path d="M640,952.362c-234.799,0-424.799,189.895-424.799,424.799c0,88.588,27.015,170.532,75.004,240.938
		c3.619,5.365,4.596,12.084,2.655,18.258l-43.144,144.363l141.379-48.785c6.123-2.037,12.838-1.186,18.253,2.322
		c66.223,42.969,145.497,67.703,230.653,67.703c234.912,0,424.798-189.891,424.798-424.799
		C1064.799,1142.25,874.912,952.362,640,952.362z M466.099,1137.548l77.326,127.771l-32.188,31.858
		c-6.739,6.799-8.098,17.262-3.319,25.553c49.125,85.075,107.332,151.261,188.836,187.181c7.993,3.549,17.346,1.838,23.562-4.312
		l34.183-34.184l124.787,77.988c-13.82,31.1-31.833,49.611-52.439,60.398c-23.865,12.498-53.019,14.867-86.286,7.969
		c-66.532-13.799-146.902-66.09-212.396-133.08c-65.494-66.994-116.177-148.457-129.101-214.726
		c-6.459-33.135-3.604-61.67,8.631-84.295C418.223,1166.189,436.118,1149.512,466.099,1137.548z"/>
</g>
</svg>
