<?xml version="1.0" encoding="utf-8"?>
<!-- Generator: Adobe Illustrator 16.0.0, SVG Export Plug-In . SVG Version: 6.00 Build 0)  -->
<!DOCTYPE svg PUBLIC "-//W3C//DTD SVG 1.1//EN" "http://www.w3.org/Graphics/SVG/1.1/DTD/svg11.dtd">
<svg version="1.1"
	 id="Layer_1" xmlns:cc="http://creativecommons.org/ns#" xmlns:dc="http://purl.org/dc/elements/1.1/" xmlns:sodipodi="http://sodipodi.sourceforge.net/DTD/sodipodi-0.dtd" xmlns:inkscape="http://www.inkscape.org/namespaces/inkscape" xmlns:svg="http://www.w3.org/2000/svg" xmlns:rdf="http://www.w3.org/1999/02/22-rdf-syntax-ns#"
	 xmlns="http://www.w3.org/2000/svg" xmlns:xlink="http://www.w3.org/1999/xlink" x="0px" y="0px" width="1280px" height="858px"
	 viewBox="0 213.692 1280 858" enable-background="new 0 213.692 1280 858" xml:space="preserve">
<g transform="translate(0,-952.36218)">
	<path d="M640,1168.054c-234.799,0-424.799,189.895-424.799,424.799c0,88.588,27.015,170.532,75.004,240.938
		c3.619,5.365,4.596,12.083,2.655,18.256l-43.144,144.364l141.379-48.784c6.123-2.038,12.838-1.186,18.253,2.321
		c66.221,42.97,145.497,67.703,230.653,67.703c234.912,0,424.798-189.89,424.798-424.799
		C1064.799,1357.942,874.912,1168.054,640,1168.054z M466.099,1353.24l77.326,127.771l-32.19,31.859
		c-6.739,6.799-8.096,17.262-3.319,25.553c49.125,85.074,107.332,151.259,188.836,187.179c7.993,3.549,17.346,1.838,23.562-4.313
		l34.183-34.184l124.787,77.99c-13.82,31.099-31.833,49.612-52.439,60.399c-23.866,12.497-53.019,14.866-86.286,7.967
		c-66.534-13.798-146.904-66.09-212.398-133.08c-65.494-66.994-116.177-148.456-129.099-214.724
		c-6.461-33.135-3.606-61.67,8.629-84.295C418.223,1381.882,436.118,1365.204,466.099,1353.24z"/>
</g>
</svg>
